<svg xmlns="http://www.w3.org/2000/svg" xmlns:v="https://svgstorm.com"
viewBox = "0 0 1080 1080"
width="1080"
height="1080">
<g fill="None" fill-opacity="0.0" stroke="#E3BD84" stroke-opacity="1.00" stroke-width="0.3"><path d="
M 0.00 1080.00 
L 1080.00 1080.00
L 1080.00 0.00
L 0.00 0.00
L 0.00 1080.00
M 458.00 451.00 
C 450.70 446.38 445.18 439.71 438.75 433.25 C 432.33 426.78 426.39 421.31 418.92 416.08 C 411.45 410.85 404.48 405.04 395.77 401.23 C 387.06 397.42 378.50 393.28 368.78 391.22 C 359.05 389.17 344.68 388.58 334.99 390.99 C 325.31 393.40 317.62 396.80 309.75 402.75 C 301.88 408.70 297.10 414.53 292.25 423.25 C 287.39 431.97 286.24 443.56 286.00 454.00 C 285.76 464.44 288.67 476.51 292.31 485.69 C 295.94 494.87 300.26 501.52 305.75 509.25 C 311.24 516.98 315.72 523.61 322.75 530.25 C 329.78 536.89 334.21 542.36 342.23 547.77 C 350.25 553.18 359.85 556.97 370.00 558.00 C 380.16 559.02 393.40 557.10 402.07 553.07 C 410.75 549.05 417.39 543.74 423.75 536.75 C 430.12 529.77 436.11 524.95 442.25 518.25 C 448.39 511.55 455.39 505.98 461.25 499.25 C 467.11 492.52 472.78 486.59 479.25 480.25 C 485.71 473.91 491.88 467.76 498.25 461.25 C 504.61 454.74 510.72 448.93 516.75 442.75 C 522.78 436.57 528.51 428.92 534.75 422.75 C 540.99 416.58 546.90 410.37 553.25 404.25 C 559.59 398.13 566.06 391.23 571.92 384.92 C 577.78 378.60 584.43 373.26 591.25 367.25 C 598.07 361.24 604.88 356.75 612.70 351.70 C 620.52 346.65 628.47 342.62 637.23 338.23 C 645.99 333.84 655.14 332.11 665.01 329.01 C 674.88 325.91 687.95 325.17 699.00 325.00 C 710.05 324.83 722.28 326.12 732.22 328.78 C 742.17 331.44 751.10 334.59 759.70 339.30 C 768.29 344.02 774.48 348.02 781.75 354.25 C 789.03 360.48 794.93 365.90 800.30 373.70 C 805.68 381.50 810.58 387.65 814.31 396.70 C 818.03 405.74 822.09 415.00 823.93 425.07 C 825.77 435.15 826.61 449.33 826.00 460.00 C 825.39 470.67 823.09 482.54 820.22 492.22 C 817.35 501.91 814.22 510.41 810.08 519.08 C 805.93 527.74 801.31 535.55 796.23 543.23 C 791.15 550.91 785.96 557.29 780.25 564.25 C 774.54 571.21 767.95 577.29 761.75 583.75 C 755.56 590.22 750.34 596.65 743.75 602.75 C 737.17 608.85 731.22 615.69 724.75 621.75 C 718.28 627.82 712.37 634.33 706.70 640.70 C 701.03 647.07 694.01 653.37 687.75 659.75 C 681.49 666.13 675.74 672.04 669.25 678.25 C 662.76 684.45 656.51 691.52 650.75 697.75 C 644.99 703.98 638.55 709.72 632.25 716.25 C 625.95 722.78 620.29 728.56 612.92 733.92 C 605.55 739.27 598.43 744.77 589.77 748.77 C 581.11 752.77 572.67 756.02 562.93 758.93 C 553.18 761.83 539.85 762.85 529.00 763.00 C 518.15 763.15 504.96 762.44 495.00 760.00 C 485.04 757.57 475.88 753.97 466.92 750.08 C 457.97 746.18 451.49 741.79 443.75 736.25 C 436.02 730.71 430.08 725.37 423.25 718.75 C 416.42 712.13 411.84 707.12 404.75 700.25 C 397.67 693.38 393.02 688.19 385.90 681.10 C 378.78 674.01 389.15 668.17 395.25 661.25 C 401.34 654.33 408.14 650.55 414.25 642.25 C 420.36 633.95 427.47 632.32 433.75 641.25 C 440.04 650.17 446.28 652.70 452.75 660.25 C 459.22 667.80 464.43 671.78 471.25 678.75 C 478.07 685.72 485.38 689.33 494.08 693.92 C 502.77 698.52 513.66 700.35 524.00 701.00 C 534.34 701.65 547.36 699.15 556.23 695.23 C 565.09 691.31 572.42 687.76 579.25 681.25 C 586.07 674.74 591.63 668.49 598.25 662.25 C 604.87 656.00 610.48 649.74 616.25 643.25 C 622.03 636.77 629.09 630.76 635.25 624.25 C 641.40 617.74 647.54 612.10 653.75 605.75 C 659.97 599.40 665.95 592.47 672.25 586.25 C 678.55 580.02 684.69 574.02 690.75 567.75 C 696.81 561.49 703.51 555.62 709.25 549.25 C 714.99 542.88 721.12 536.44 727.75 529.75 C 734.38 523.06 738.81 516.97 744.25 509.25 C 749.70 501.54 753.58 493.35 757.32 484.32 C 761.06 475.29 763.70 464.37 764.00 454.00 C 764.30 443.63 762.38 431.12 757.70 422.31 C 753.01 413.49 749.40 407.96 741.75 401.25 C 734.10 394.54 725.60 391.91 716.00 389.00 C 706.40 386.10 692.44 386.60 682.78 388.78 C 673.12 390.95 663.21 394.14 654.92 398.92 C 646.63 403.70 639.93 408.07 632.75 413.75 C 625.57 419.44 619.11 425.26 612.75 431.75 C 606.40 438.24 601.42 444.61 594.75 450.75 C 588.08 456.89 582.37 463.65 575.75 469.75 C 569.13 475.85 563.70 482.28 557.75 488.75 C 551.80 495.23 545.04 501.54 538.75 507.75 C 532.46 513.96 527.16 520.69 520.75 526.75 C 514.34 532.82 507.96 539.93 502.23 546.23 C 496.50 552.53 490.06 558.08 483.75 564.75 C 477.44 571.43 471.26 577.14 464.75 583.75 C 458.24 590.36 452.59 595.53 444.75 600.75 C 436.92 605.98 428.07 609.41 418.98 612.98 C 409.88 616.54 399.19 618.53 388.99 619.99 C 378.80 621.46 365.38 620.23 355.33 618.67 C 345.28 617.11 335.22 613.55 326.31 609.69 C 317.39 605.84 310.45 601.63 302.92 596.08 C 295.39 590.53 289.40 584.83 282.75 578.25 C 276.10 571.66 270.79 566.14 265.08 558.92 C 259.37 551.70 253.88 544.95 249.08 536.92 C 244.28 528.89 240.33 521.67 236.23 512.77 C 232.13 503.87 229.73 493.90 227.02 483.98 C 224.32 474.05 224.14 460.91 224.00 450.00 C 223.86 439.09 225.93 426.65 228.93 416.93 C 231.92 407.20 234.74 399.06 239.77 390.77 C 244.80 382.48 248.88 375.40 255.30 368.30 C 261.72 361.21 267.43 356.42 275.08 351.08 C 282.73 345.74 290.25 340.93 299.23 337.23 C 308.21 333.53 317.96 330.71 328.07 329.07 C 338.19 327.44 354.47 327.56 365.00 328.00 C 375.53 328.44 386.11 331.73 395.68 334.32 C 405.24 336.92 414.08 341.28 422.70 345.31 C 431.31 349.33 438.51 353.89 446.23 358.77 C 453.95 363.65 460.61 369.88 467.75 375.25 C 474.89 380.62 480.28 387.17 486.75 393.25 C 493.23 399.32 503.46 406.61 495.25 413.25 C 487.04 419.88 483.95 425.25 476.75 431.75 C 469.55 438.26 464.42 444.18 458.00 451.00 Z"/>
</g>
<g fill="None" fill-opacity="0.0" stroke="#000002" stroke-opacity="1.00" stroke-width="0.3"><path d="
M 458.00 451.00 
C 464.42 444.18 469.55 438.26 476.75 431.75 C 483.95 425.25 487.04 419.88 495.25 413.25 C 503.46 406.61 493.23 399.32 486.75 393.25 C 480.28 387.17 474.89 380.62 467.75 375.25 C 460.61 369.88 453.95 363.65 446.23 358.77 C 438.51 353.89 431.31 349.33 422.70 345.31 C 414.08 341.28 405.24 336.92 395.68 334.32 C 386.11 331.73 375.53 328.44 365.00 328.00 C 354.47 327.56 338.19 327.44 328.07 329.07 C 317.96 330.71 308.21 333.53 299.23 337.23 C 290.25 340.93 282.73 345.74 275.08 351.08 C 267.43 356.42 261.72 361.21 255.30 368.30 C 248.88 375.40 244.80 382.48 239.77 390.77 C 234.74 399.06 231.92 407.20 228.93 416.93 C 225.93 426.65 223.86 439.09 224.00 450.00 C 224.14 460.91 224.32 474.05 227.02 483.98 C 229.73 493.90 232.13 503.87 236.23 512.77 C 240.33 521.67 244.28 528.89 249.08 536.92 C 253.88 544.95 259.37 551.70 265.08 558.92 C 270.79 566.14 276.10 571.66 282.75 578.25 C 289.40 584.83 295.39 590.53 302.92 596.08 C 310.45 601.63 317.39 605.84 326.31 609.69 C 335.22 613.55 345.28 617.11 355.33 618.67 C 365.38 620.23 378.80 621.46 388.99 619.99 C 399.19 618.53 409.88 616.54 418.98 612.98 C 428.07 609.41 436.92 605.98 444.75 600.75 C 452.59 595.53 458.24 590.36 464.75 583.75 C 471.26 577.14 477.44 571.43 483.75 564.75 C 490.06 558.08 496.50 552.53 502.23 546.23 C 507.96 539.93 514.34 532.82 520.75 526.75 C 527.16 520.69 532.46 513.96 538.75 507.75 C 545.04 501.54 551.80 495.23 557.75 488.75 C 563.70 482.28 569.13 475.85 575.75 469.75 C 582.37 463.65 588.08 456.89 594.75 450.75 C 601.42 444.61 606.40 438.24 612.75 431.75 C 619.11 425.26 625.57 419.44 632.75 413.75 C 639.93 408.07 646.63 403.70 654.92 398.92 C 663.21 394.14 673.12 390.95 682.78 388.78 C 692.44 386.60 706.40 386.10 716.00 389.00 C 725.60 391.91 734.10 394.54 741.75 401.25 C 749.40 407.96 753.01 413.49 757.70 422.31 C 762.38 431.12 764.30 443.63 764.00 454.00 C 763.70 464.37 761.06 475.29 757.32 484.32 C 753.58 493.35 749.70 501.54 744.25 509.25 C 738.81 516.97 734.38 523.06 727.75 529.75 C 721.12 536.44 714.99 542.88 709.25 549.25 C 703.51 555.62 696.81 561.49 690.75 567.75 C 684.69 574.02 678.55 580.02 672.25 586.25 C 665.95 592.47 659.97 599.40 653.75 605.75 C 647.54 612.10 641.40 617.74 635.25 624.25 C 629.09 630.76 622.03 636.77 616.25 643.25 C 610.48 649.74 604.87 656.00 598.25 662.25 C 591.63 668.49 586.07 674.74 579.25 681.25 C 572.42 687.76 565.09 691.31 556.23 695.23 C 547.36 699.15 534.34 701.65 524.00 701.00 C 513.66 700.35 502.77 698.52 494.08 693.92 C 485.38 689.33 478.07 685.72 471.25 678.75 C 464.43 671.78 459.22 667.80 452.75 660.25 C 446.28 652.70 440.04 650.17 433.75 641.25 C 427.47 632.32 420.36 633.95 414.25 642.25 C 408.14 650.55 401.34 654.33 395.25 661.25 C 389.15 668.17 378.78 674.01 385.90 681.10 C 393.02 688.19 397.67 693.38 404.75 700.25 C 411.84 707.12 416.42 712.13 423.25 718.75 C 430.08 725.37 436.02 730.71 443.75 736.25 C 451.49 741.79 457.97 746.18 466.92 750.08 C 475.88 753.97 485.04 757.57 495.00 760.00 C 504.96 762.44 518.15 763.15 529.00 763.00 C 539.85 762.85 553.18 761.83 562.93 758.93 C 572.67 756.02 581.11 752.77 589.77 748.77 C 598.43 744.77 605.55 739.27 612.92 733.92 C 620.29 728.56 625.95 722.78 632.25 716.25 C 638.55 709.72 644.99 703.98 650.75 697.75 C 656.51 691.52 662.76 684.45 669.25 678.25 C 675.74 672.04 681.49 666.13 687.75 659.75 C 694.01 653.37 701.03 647.07 706.70 640.70 C 712.37 634.33 718.28 627.82 724.75 621.75 C 731.22 615.69 737.17 608.85 743.75 602.75 C 750.34 596.65 755.56 590.22 761.75 583.75 C 767.95 577.29 774.54 571.21 780.25 564.25 C 785.96 557.29 791.15 550.91 796.23 543.23 C 801.31 535.55 805.93 527.74 810.08 519.08 C 814.22 510.41 817.35 501.91 820.22 492.22 C 823.09 482.54 825.39 470.67 826.00 460.00 C 826.61 449.33 825.77 435.15 823.93 425.07 C 822.09 415.00 818.03 405.74 814.31 396.70 C 810.58 387.65 805.68 381.50 800.30 373.70 C 794.93 365.90 789.03 360.48 781.75 354.25 C 774.48 348.02 768.29 344.02 759.70 339.30 C 751.10 334.59 742.17 331.44 732.22 328.78 C 722.28 326.12 710.05 324.83 699.00 325.00 C 687.95 325.17 674.88 325.91 665.01 329.01 C 655.14 332.11 645.99 333.84 637.23 338.23 C 628.47 342.62 620.52 346.65 612.70 351.70 C 604.88 356.75 598.07 361.24 591.25 367.25 C 584.43 373.26 577.78 378.60 571.92 384.92 C 566.06 391.23 559.59 398.13 553.25 404.25 C 546.90 410.37 540.99 416.58 534.75 422.75 C 528.51 428.92 522.78 436.57 516.75 442.75 C 510.72 448.93 504.61 454.74 498.25 461.25 C 491.88 467.76 485.71 473.91 479.25 480.25 C 472.78 486.59 467.11 492.52 461.25 499.25 C 455.39 505.98 448.39 511.55 442.25 518.25 C 436.11 524.95 430.12 529.77 423.75 536.75 C 417.39 543.74 410.75 549.05 402.07 553.07 C 393.40 557.10 380.16 559.02 370.00 558.00 C 359.85 556.97 350.25 553.18 342.23 547.77 C 334.21 542.36 329.78 536.89 322.75 530.25 C 315.72 523.61 311.24 516.98 305.75 509.25 C 300.26 501.52 295.94 494.87 292.31 485.69 C 288.67 476.51 285.76 464.44 286.00 454.00 C 286.24 443.56 287.39 431.97 292.25 423.25 C 297.10 414.53 301.88 408.70 309.75 402.75 C 317.62 396.80 325.31 393.40 334.99 390.99 C 344.68 388.58 359.05 389.17 368.78 391.22 C 378.50 393.28 387.06 397.42 395.77 401.23 C 404.48 405.04 411.45 410.85 418.92 416.08 C 426.39 421.31 432.33 426.78 438.75 433.25 C 445.18 439.71 450.70 446.38 458.00 451.00 Z"/>
</g>
<g fill="#E3BD84" fill-opacity="1.00" stroke="None">
<path d="
M 0.00 1080.00 
L 1080.00 1080.00
L 1080.00 0.00
L 0.00 0.00
L 0.00 1080.00
M 458.00 451.00 
C 450.70 446.38 445.18 439.71 438.75 433.25 C 432.33 426.78 426.39 421.31 418.92 416.08 C 411.45 410.85 404.48 405.04 395.77 401.23 C 387.06 397.42 378.50 393.28 368.78 391.22 C 359.05 389.17 344.68 388.58 334.99 390.99 C 325.31 393.40 317.62 396.80 309.75 402.75 C 301.88 408.70 297.10 414.53 292.25 423.25 C 287.39 431.97 286.24 443.56 286.00 454.00 C 285.76 464.44 288.67 476.51 292.31 485.69 C 295.94 494.87 300.26 501.52 305.75 509.25 C 311.24 516.98 315.72 523.61 322.75 530.25 C 329.78 536.89 334.21 542.36 342.23 547.77 C 350.25 553.18 359.85 556.97 370.00 558.00 C 380.16 559.02 393.40 557.10 402.07 553.07 C 410.75 549.05 417.39 543.74 423.75 536.75 C 430.12 529.77 436.11 524.95 442.25 518.25 C 448.39 511.55 455.39 505.98 461.25 499.25 C 467.11 492.52 472.78 486.59 479.25 480.25 C 485.71 473.91 491.88 467.76 498.25 461.25 C 504.61 454.74 510.72 448.93 516.75 442.75 C 522.78 436.57 528.51 428.92 534.75 422.75 C 540.99 416.58 546.90 410.37 553.25 404.25 C 559.59 398.13 566.06 391.23 571.92 384.92 C 577.78 378.60 584.43 373.26 591.25 367.25 C 598.07 361.24 604.88 356.75 612.70 351.70 C 620.52 346.65 628.47 342.62 637.23 338.23 C 645.99 333.84 655.14 332.11 665.01 329.01 C 674.88 325.91 687.95 325.17 699.00 325.00 C 710.05 324.83 722.28 326.12 732.22 328.78 C 742.17 331.44 751.10 334.59 759.70 339.30 C 768.29 344.02 774.48 348.02 781.75 354.25 C 789.03 360.48 794.93 365.90 800.30 373.70 C 805.68 381.50 810.58 387.65 814.31 396.70 C 818.03 405.74 822.09 415.00 823.93 425.07 C 825.77 435.15 826.61 449.33 826.00 460.00 C 825.39 470.67 823.09 482.54 820.22 492.22 C 817.35 501.91 814.22 510.41 810.08 519.08 C 805.93 527.74 801.31 535.55 796.23 543.23 C 791.15 550.91 785.96 557.29 780.25 564.25 C 774.54 571.21 767.95 577.29 761.75 583.75 C 755.56 590.22 750.34 596.65 743.75 602.75 C 737.17 608.85 731.22 615.69 724.75 621.75 C 718.28 627.82 712.37 634.33 706.70 640.70 C 701.03 647.07 694.01 653.37 687.75 659.75 C 681.49 666.13 675.74 672.04 669.25 678.25 C 662.76 684.45 656.51 691.52 650.75 697.75 C 644.99 703.98 638.55 709.72 632.25 716.25 C 625.95 722.78 620.29 728.56 612.92 733.92 C 605.55 739.27 598.43 744.77 589.77 748.77 C 581.11 752.77 572.67 756.02 562.93 758.93 C 553.18 761.83 539.85 762.85 529.00 763.00 C 518.15 763.15 504.96 762.44 495.00 760.00 C 485.04 757.57 475.88 753.97 466.92 750.08 C 457.97 746.18 451.49 741.79 443.75 736.25 C 436.02 730.71 430.08 725.37 423.25 718.75 C 416.42 712.13 411.84 707.12 404.75 700.25 C 397.67 693.38 393.02 688.19 385.90 681.10 C 378.78 674.01 389.15 668.17 395.25 661.25 C 401.34 654.33 408.14 650.55 414.25 642.25 C 420.36 633.95 427.47 632.32 433.75 641.25 C 440.04 650.17 446.28 652.70 452.75 660.25 C 459.22 667.80 464.43 671.78 471.25 678.75 C 478.07 685.72 485.38 689.33 494.08 693.92 C 502.77 698.52 513.66 700.35 524.00 701.00 C 534.34 701.65 547.36 699.15 556.23 695.23 C 565.09 691.31 572.42 687.76 579.25 681.25 C 586.07 674.74 591.63 668.49 598.25 662.25 C 604.87 656.00 610.48 649.74 616.25 643.25 C 622.03 636.77 629.09 630.76 635.25 624.25 C 641.40 617.74 647.54 612.10 653.75 605.75 C 659.97 599.40 665.95 592.47 672.25 586.25 C 678.55 580.02 684.69 574.02 690.75 567.75 C 696.81 561.49 703.51 555.62 709.25 549.25 C 714.99 542.88 721.12 536.44 727.75 529.75 C 734.38 523.06 738.81 516.97 744.25 509.25 C 749.70 501.54 753.58 493.35 757.32 484.32 C 761.06 475.29 763.70 464.37 764.00 454.00 C 764.30 443.63 762.38 431.12 757.70 422.31 C 753.01 413.49 749.40 407.96 741.75 401.25 C 734.10 394.54 725.60 391.91 716.00 389.00 C 706.40 386.10 692.44 386.60 682.78 388.78 C 673.12 390.95 663.21 394.14 654.92 398.92 C 646.63 403.70 639.93 408.07 632.75 413.75 C 625.57 419.44 619.11 425.26 612.75 431.75 C 606.40 438.24 601.42 444.61 594.75 450.75 C 588.08 456.89 582.37 463.65 575.75 469.75 C 569.13 475.85 563.70 482.28 557.75 488.75 C 551.80 495.23 545.04 501.54 538.75 507.75 C 532.46 513.96 527.16 520.69 520.75 526.75 C 514.34 532.82 507.96 539.93 502.23 546.23 C 496.50 552.53 490.06 558.08 483.75 564.75 C 477.44 571.43 471.26 577.14 464.75 583.75 C 458.24 590.36 452.59 595.53 444.75 600.75 C 436.92 605.98 428.07 609.41 418.98 612.98 C 409.88 616.54 399.19 618.53 388.99 619.99 C 378.80 621.46 365.38 620.23 355.33 618.67 C 345.28 617.11 335.22 613.55 326.31 609.69 C 317.39 605.84 310.45 601.63 302.92 596.08 C 295.39 590.53 289.40 584.83 282.75 578.25 C 276.10 571.66 270.79 566.14 265.08 558.92 C 259.37 551.70 253.88 544.95 249.08 536.92 C 244.28 528.89 240.33 521.67 236.23 512.77 C 232.13 503.87 229.73 493.90 227.02 483.98 C 224.32 474.05 224.14 460.91 224.00 450.00 C 223.86 439.09 225.93 426.65 228.93 416.93 C 231.92 407.20 234.74 399.06 239.77 390.77 C 244.80 382.48 248.88 375.40 255.30 368.30 C 261.72 361.21 267.43 356.42 275.08 351.08 C 282.73 345.74 290.25 340.93 299.23 337.23 C 308.21 333.53 317.96 330.71 328.07 329.07 C 338.19 327.44 354.47 327.56 365.00 328.00 C 375.53 328.44 386.11 331.73 395.68 334.32 C 405.24 336.92 414.08 341.28 422.70 345.31 C 431.31 349.33 438.51 353.89 446.23 358.77 C 453.95 363.65 460.61 369.88 467.75 375.25 C 474.89 380.62 480.28 387.17 486.75 393.25 C 493.23 399.32 503.46 406.61 495.25 413.25 C 487.04 419.88 483.95 425.25 476.75 431.75 C 469.55 438.26 464.42 444.18 458.00 451.00 Z"/>
</g>
<g fill="#000002" fill-opacity="1.00" stroke="None">
<path d="
M 458.00 451.00 
C 464.42 444.18 469.55 438.26 476.75 431.75 C 483.95 425.25 487.04 419.88 495.25 413.25 C 503.46 406.61 493.23 399.32 486.75 393.25 C 480.28 387.17 474.89 380.62 467.75 375.25 C 460.61 369.88 453.95 363.65 446.23 358.77 C 438.51 353.89 431.31 349.33 422.70 345.31 C 414.08 341.28 405.24 336.92 395.68 334.32 C 386.11 331.73 375.53 328.44 365.00 328.00 C 354.47 327.56 338.19 327.44 328.07 329.07 C 317.96 330.71 308.21 333.53 299.23 337.23 C 290.25 340.93 282.73 345.74 275.08 351.08 C 267.43 356.42 261.72 361.21 255.30 368.30 C 248.88 375.40 244.80 382.48 239.77 390.77 C 234.74 399.06 231.92 407.20 228.93 416.93 C 225.93 426.65 223.86 439.09 224.00 450.00 C 224.14 460.91 224.32 474.05 227.02 483.98 C 229.73 493.90 232.13 503.87 236.23 512.77 C 240.33 521.67 244.28 528.89 249.08 536.92 C 253.88 544.95 259.37 551.70 265.08 558.92 C 270.79 566.14 276.10 571.66 282.75 578.25 C 289.40 584.83 295.39 590.53 302.92 596.08 C 310.45 601.63 317.39 605.84 326.31 609.69 C 335.22 613.55 345.28 617.11 355.33 618.67 C 365.38 620.23 378.80 621.46 388.99 619.99 C 399.19 618.53 409.88 616.54 418.98 612.98 C 428.07 609.41 436.92 605.98 444.75 600.75 C 452.59 595.53 458.24 590.36 464.75 583.75 C 471.26 577.14 477.44 571.43 483.75 564.75 C 490.06 558.08 496.50 552.53 502.23 546.23 C 507.96 539.93 514.34 532.82 520.75 526.75 C 527.16 520.69 532.46 513.96 538.75 507.75 C 545.04 501.54 551.80 495.23 557.75 488.75 C 563.70 482.28 569.13 475.85 575.75 469.75 C 582.37 463.65 588.08 456.89 594.75 450.75 C 601.42 444.61 606.40 438.24 612.75 431.75 C 619.11 425.26 625.57 419.44 632.75 413.75 C 639.93 408.07 646.63 403.70 654.92 398.92 C 663.21 394.14 673.12 390.95 682.78 388.78 C 692.44 386.60 706.40 386.10 716.00 389.00 C 725.60 391.91 734.10 394.54 741.75 401.25 C 749.40 407.96 753.01 413.49 757.70 422.31 C 762.38 431.12 764.30 443.63 764.00 454.00 C 763.70 464.37 761.06 475.29 757.32 484.32 C 753.58 493.35 749.70 501.54 744.25 509.25 C 738.81 516.97 734.38 523.06 727.75 529.75 C 721.12 536.44 714.99 542.88 709.25 549.25 C 703.51 555.62 696.81 561.49 690.75 567.75 C 684.69 574.02 678.55 580.02 672.25 586.25 C 665.95 592.47 659.97 599.40 653.75 605.75 C 647.54 612.10 641.40 617.74 635.25 624.25 C 629.09 630.76 622.03 636.77 616.25 643.25 C 610.48 649.74 604.87 656.00 598.25 662.25 C 591.63 668.49 586.07 674.74 579.25 681.25 C 572.42 687.76 565.09 691.31 556.23 695.23 C 547.36 699.15 534.34 701.65 524.00 701.00 C 513.66 700.35 502.77 698.52 494.08 693.92 C 485.38 689.33 478.07 685.72 471.25 678.75 C 464.43 671.78 459.22 667.80 452.75 660.25 C 446.28 652.70 440.04 650.17 433.75 641.25 C 427.47 632.32 420.36 633.95 414.25 642.25 C 408.14 650.55 401.34 654.33 395.25 661.25 C 389.15 668.17 378.78 674.01 385.90 681.10 C 393.02 688.19 397.67 693.38 404.75 700.25 C 411.84 707.12 416.42 712.13 423.25 718.75 C 430.08 725.37 436.02 730.71 443.75 736.25 C 451.49 741.79 457.97 746.18 466.92 750.08 C 475.88 753.97 485.04 757.57 495.00 760.00 C 504.96 762.44 518.15 763.15 529.00 763.00 C 539.85 762.85 553.18 761.83 562.93 758.93 C 572.67 756.02 581.11 752.77 589.77 748.77 C 598.43 744.77 605.55 739.27 612.92 733.92 C 620.29 728.56 625.95 722.78 632.25 716.25 C 638.55 709.72 644.99 703.98 650.75 697.75 C 656.51 691.52 662.76 684.45 669.25 678.25 C 675.74 672.04 681.49 666.13 687.75 659.75 C 694.01 653.37 701.03 647.07 706.70 640.70 C 712.37 634.33 718.28 627.82 724.75 621.75 C 731.22 615.69 737.17 608.85 743.75 602.75 C 750.34 596.65 755.56 590.22 761.75 583.75 C 767.95 577.29 774.54 571.21 780.25 564.25 C 785.96 557.29 791.15 550.91 796.23 543.23 C 801.31 535.55 805.93 527.74 810.08 519.08 C 814.22 510.41 817.35 501.91 820.22 492.22 C 823.09 482.54 825.39 470.67 826.00 460.00 C 826.61 449.33 825.77 435.15 823.93 425.07 C 822.09 415.00 818.03 405.74 814.31 396.70 C 810.58 387.65 805.68 381.50 800.30 373.70 C 794.93 365.90 789.03 360.48 781.75 354.25 C 774.48 348.02 768.29 344.02 759.70 339.30 C 751.10 334.59 742.17 331.44 732.22 328.78 C 722.28 326.12 710.05 324.83 699.00 325.00 C 687.95 325.17 674.88 325.91 665.01 329.01 C 655.14 332.11 645.99 333.84 637.23 338.23 C 628.47 342.62 620.52 346.65 612.70 351.70 C 604.88 356.75 598.07 361.24 591.25 367.25 C 584.43 373.26 577.78 378.60 571.92 384.92 C 566.06 391.23 559.59 398.13 553.25 404.25 C 546.90 410.37 540.99 416.58 534.75 422.75 C 528.51 428.92 522.78 436.57 516.75 442.75 C 510.72 448.93 504.61 454.74 498.25 461.25 C 491.88 467.76 485.71 473.91 479.25 480.25 C 472.78 486.59 467.11 492.52 461.25 499.25 C 455.39 505.98 448.39 511.55 442.25 518.25 C 436.11 524.95 430.12 529.77 423.75 536.75 C 417.39 543.74 410.75 549.05 402.07 553.07 C 393.40 557.10 380.16 559.02 370.00 558.00 C 359.85 556.97 350.25 553.18 342.23 547.77 C 334.21 542.36 329.78 536.89 322.75 530.25 C 315.72 523.61 311.24 516.98 305.75 509.25 C 300.26 501.52 295.94 494.87 292.31 485.69 C 288.67 476.51 285.76 464.44 286.00 454.00 C 286.24 443.56 287.39 431.97 292.25 423.25 C 297.10 414.53 301.88 408.70 309.75 402.75 C 317.62 396.80 325.31 393.40 334.99 390.99 C 344.68 388.58 359.05 389.17 368.78 391.22 C 378.50 393.28 387.06 397.42 395.77 401.23 C 404.48 405.04 411.45 410.85 418.92 416.08 C 426.39 421.31 432.33 426.78 438.75 433.25 C 445.18 439.71 450.70 446.38 458.00 451.00 Z"/>
</g>
</svg>